PathFileType	4	(X/Y/Z)	pose_F01_0-96.trc
DataRate	CameraRate	NumFrames	NumMarkers	Units	OrigDataRate	OrigDataStartFrame	OrigNumFrames
30	30	6	21	m	30	0	96
Frame#	Time	CHip			RHip			RKnee			RAnkle			RBigToe			RSmallToe			RHeel			LHip			LKnee			LAnkle			LBigToe			LSmallToe			LHeel			Neck			Nose			RShoulder			RElbow			RWrist			LShoulder			LElbow			LWrist			
		X1	Y1	Z1	X2	Y2	Z2	X3	Y3	Z3	X4	Y4	Z4	X5	Y5	Z5	X6	Y6	Z6	X7	Y7	Z7	X8	Y8	Z8	X9	Y9	Z9	X10	Y10	Z10	X11	Y11	Z11	X12	Y12	Z12	X13	Y13	Z13	X14	Y14	Z14	X15	Y15	Z15	X16	Y16	Z16	X17	Y17	Z17	X18	Y18	Z18	X19	Y19	Z19	X20	Y20	Z20	X21	Y21	Z21	
0	0.0	-0.2515591125961029	1.8169324792870096	-0.5520182359528116	-0.2686633074961295	1.8233095853953596	-0.4897204425128093	-0.2821005481310575	1.6341217613627959	-0.4933616623137273	-0.27741825750260113	1.5359883457490666	-0.43556162927505143	-0.23915218009127998	1.5195151506845488	-0.46012322552278606	-0.24881615374375732	1.5053807716928542	-0.44486412390041674	-0.2936167951322783	1.5303428185431798	-0.4847178798142927	-0.23889664816658804	1.8203823680675777	-0.6047099079347055	-0.26319679159632114	1.655485967156055	-0.5978267307096549													-0.27564660645742983	1.9948204981660898	-0.5193491585283525	-0.2159275045778454	2.066341440506045	-0.547425460677842	-0.2718215172882892	1.9790215113703618	-0.46482323885399035	-0.26974656088602245	1.8907737727781677	-0.4272507324246448	-0.2729847539717328	1.8108041858568884	-0.4362080976072163	-0.24209585354299804	1.9991119481604842	-0.6628835475853374	-0.2368370336869639	1.888978809692311	-0.6780439385306438	-0.19265954710098226	1.7777301284735016	-0.6894761240464262
1	0.03333333333333333	-0.25155017424089754	1.8171409207891571	-0.552168878844543	-0.2686149486766372	1.8228649923928768	-0.48991599029201827	-0.28215980959831904	1.6378903648011427	-0.4936837299318874	-0.2782076578126069	1.5371138553328205	-0.43930394662573147	-0.23915218009127998	1.5195151506845488	-0.46012322552278606	-0.24916515901182051	1.5068791099891703	-0.44451289551799056	-0.2936167951322783	1.5303428185431798	-0.4847178798142927	-0.2389178842826026	1.820518771181121	-0.6047946214912111	-0.2630757321993108	1.657691554554414	-0.5982610859984099													-0.27478347088485183	1.9938087716568342	-0.5244443224169094	-0.21675917341956102	2.0650621196126417	-0.5498997053910686	-0.27283595839271424	1.9791124176802988	-0.4678361736048865	-0.2707673696193112	1.8908466841284375	-0.43036328912468025	-0.27295587644543345	1.8113761734675566	-0.4363625411070101	-0.2422072382906559	1.9979586949463912	-0.6630502290252644	-0.2367844525403386	1.8894171514831457	-0.6780869916733769	-0.19509622306682256	1.7810505953791949	-0.6874422749882739
2	0.06666666666666667	-0.25154123588569216	1.8173493622913046	-0.5523195217362744	-0.26856658985714493	1.822420399390394	-0.49011153807122726	-0.2822190710655806	1.6416589682394895	-0.49400579755004753	-0.2789970581226127	1.5382393649165744	-0.4430462639764115	-0.23915218009127998	1.5195151506845488	-0.46012322552278606	-0.2495141642798837	1.5083774482854864	-0.4441616671355644	-0.2936167951322783	1.5303428185431798	-0.4847178798142927	-0.23893912039861717	1.8206551742946644	-0.6048793350477167	-0.26295467280230045	1.659897141952773	-0.5986954412871649													-0.27392033531227383	1.9927970451475787	-0.5295394863054663	-0.21759084226127665	2.0637827987192385	-0.5523739501042951	-0.2738503994971393	1.9792033239902358	-0.47084910835578264	-0.27178817835259994	1.8909195954787072	-0.4334758458247157	-0.27292699891913413	1.8119481610782249	-0.43651698460680394	-0.24231862303831378	1.9968054417322982	-0.6632169104651915	-0.23673187139371332	1.8898554932739804	-0.6781300448161101	-0.19753289903266286	1.784371062284888	-0.6854084259301216
3	0.1	-0.2515322975304868	1.817557803793452	-0.5524701646280058	-0.26851823103765265	1.8219758063879112	-0.49030708585043625	-0.2822783325328421	1.6454275716778364	-0.49432786516820765	-0.2797864584326185	1.5393648745003283	-0.44678858132709154	-0.23915218009127998	1.5195151506845488	-0.46012322552278606	-0.2498631695479469	1.5098757865818024	-0.4438104387531382	-0.2936167951322783	1.5303428185431798	-0.4847178798142927	-0.23896035651463174	1.8207915774082077	-0.6049640486042224	-0.2628336134052901	1.6621027293511321	-0.5991297965759199													-0.27305719973969583	1.9917853186383232	-0.5346346501940232	-0.21842251110299227	2.0625034778258353	-0.5548481948175217	-0.27486484060156435	1.9792942303001728	-0.4738620431066788	-0.2728089870858887	1.890992506828977	-0.4365884025247512	-0.2728981213928348	1.812520148688893	-0.43667142810659776	-0.24243000778597165	1.9956521885182053	-0.6633835919051185	-0.23667929024708803	1.890293835064815	-0.6781730979588432	-0.19996957499850315	1.7876915291905813	-0.6833745768719693
4	0.13333333333333333	-0.2515233591752814	1.8177662452955996	-0.5526208075197372	-0.2684698722181604	1.8215312133854284	-0.49050263362964525	-0.28233759400010366	1.6491961751161832	-0.49464993278636776	-0.2805758587426243	1.5404903840840822	-0.4505308986777716	-0.23915218009127998	1.5195151506845488	-0.46012322552278606	-0.2502121748160101	1.5113741248781185	-0.443459210370712	-0.2936167951322783	1.5303428185431798	-0.4847178798142927	-0.2389815926306463	1.820927980521751	-0.605048762160728	-0.26271255400827975	1.6643083167494912	-0.5995641518646749													-0.27219406416711783	1.9907735921290677	-0.5397298140825801	-0.2192541799447079	2.061224156932432	-0.5573224395307482	-0.2758792817059894	1.9793851366101098	-0.47687497785757493	-0.27382979581917744	1.8910654181792468	-0.43970095922478664	-0.2728692438665355	1.8130921362995613	-0.4368258716063916	-0.24254139253362952	1.9944989353041123	-0.6635502733450456	-0.23662670910046274	1.8907321768556498	-0.6782161511015763	-0.20240625096434345	1.7910119960962745	-0.681340727813817
5	0.16666666666666666	-0.251514420820076	1.817974686797747	-0.5527714504114686	-0.2684215133986681	1.8210866203829457	-0.49069818140885424	-0.2823968554673652	1.65296477855453	-0.4949720004045279	-0.2813652590526301	1.5416158936678361	-0.4542732160284516	-0.23915218009127998	1.5195151506845488	-0.46012322552278606	-0.2505611800840733	1.5128724631744346	-0.4431079819882858	-0.2936167951322783	1.5303428185431798	-0.4847178798142927	-0.23900282874666087	1.8210643836352944	-0.6051334757172336	-0.2625914946112694	1.6665139041478503	-0.59999850715343													-0.27133092859453983	1.9897618656198122	-0.544824977971137	-0.2200858487864235	2.059944836039029	-0.5597966842439748	-0.27689372281041447	1.9794760429200469	-0.4798879126084711	-0.2748506045524662	1.8911383295295165	-0.4428135159248221	-0.2728403663402362	1.8136641239102296	-0.4369803151061854	-0.2426527772812874	1.9933456820900193	-0.6637169547849726	-0.23657412795383745	1.8911705186464844	-0.6782592042443094	-0.20484292693018374	1.7943324630019677	-0.6793068787556648
